<?xml version="1.0" encoding="utf-8"?>

<!DOCTYPE svg PUBLIC "-//W3C//DTD SVG 1.1//EN" "http://www.w3.org/Graphics/SVG/1.1/DTD/svg11.dtd">
<svg version="1.1"
	 id="svg71499" xmlns:cc="http://creativecommons.org/ns#" xmlns:dc="http://purl.org/dc/elements/1.1/" xmlns:rdf="http://www.w3.org/1999/02/22-rdf-syntax-ns#" xmlns:svg="http://www.w3.org/2000/svg"
	 xmlns="http://www.w3.org/2000/svg" xmlns:xlink="http://www.w3.org/1999/xlink" x="0px" y="0px" viewBox="0 0 2666.939 2051.265"
	 enable-background="new 0 0 2666.939 2051.265" xml:space="preserve">
<path d="M2612.811,1081.487c-6.446-10.429-55.869-15.086-65.698-6.191c-3.122,2.825-5.2,7.973-5.2,12.878
	c0,10.591-5.07,38.097-7.637,41.432c-2.148,2.789-6.045,16.706-4.459,16.397c-0.854,2.123-1.052,4.078-0.028,6.325
	c-24.572,26.063-81.861,81.965-85.123,81.965c-5.175,0-15.925,15.509-20.161,15.509c-4.566,0-7.197,15.509-14.478,15.509
	c-2.636,0-8.467,3.356-12.958,7.457c-6.511,5.947-7.616,7.789-5.766,11.838c-5.969,5.87-2.913,3.896-9.945,10.531
	c-1.536-1.044-2.762-1.531-3.002-1.115c-2.572,4.469-5.037,10.423-11.096,13.766c-6.875,3.794-6.458,2.836-7.01,6.818
	c-2.244,1.311-13.436,8.21-14.455,10.502c-5.703,2.24-6.117,5.063-16.207,10.316c-8.955,4.663-25.088,24.227-27.133,32.9
	c-1.645,6.98-28.207,33.707-33.677,33.885c-1.658,0.054-6.54,4.55-10.849,9.991c-6.572,8.298-12.542,11.677-37.052,20.971
	c-28.066,10.643-273.915,106.443-285.66,111.315c-16.187,6.714-41.877,1.344-37.923,17.097c2.969,11.832-28.616,48.164-16.71,40.806
	c4.188-2.588,0.034,4.697-3.053,2.789c-2.999-1.853-5.874,8.232-20.455,26.679c-10.654,13.479-12.899,17.805-7.51,14.474
	c4.198-2.594,0.001,4.676-2.965,2.843c-1.214-0.751-4.86,2.429-8.101,7.066c-11.961,17.114-78.511,82.307-78.511,82.307
	c0,2.628-4.515,7.036-3.622,3.669c2.203-8.304-10.034-32.311-16.47-32.311c-3.655,0-18.768-15.521-23.294-15.469
	c-4.871,0.061-10.959,4.636-8.904,6.69c3.167,3.167-5.586,6.652-1.382,12.01c4.575,5.83,7.241,24.765,19.077,35.822l8.26,7.716
	c-9.513,6.663-6.814,6.01-73.341,33.358c-98.161-16.644-159.098-44.177-155.987-51.552c8.704-20.637,2.268-45.972-13.171-51.842
	c-19.696-7.488-14.659-14.653-81.835-33.575c-44.915-12.653-40.634-15.378-35.792-28.47c0.818,0.055,1.635,0.11,2.453,0.165
	c0.151,6.774,1.241,9.54,6.662,5.623c1.984-1.433,17.346-43.891,1.355-21.434c-1.856,2.606-3.558,4.573-5.029,5.877
	c-3.336-1.252-1.462-3.29-1.658-6.414c0.452-0.236,0.919-0.45,1.411-0.607c5.485-1.741,7.043-10.169,2.409-13.033
	c-1.519-0.939-2.152-3.295-1.406-5.237c2.227-5.804-5.643-28.163-11.941-33.923c-12.104-11.07-22.67-14.223-54.737-16.333
	c-18.203-1.198-32.281-1.082-33.712,0.277c-3.776,3.589-8.159,0.612-14.181,6.062c-5.843,5.288-14.302-6.456-108.448-84.785
	c-133.046-110.697-179.647-144.316-184.949-175.378c-1.691-9.91-11.412-20.107-19.239-20.185
	c-5.602-0.055-41.568-60.86-73.762-110.953c-13.462-20.946-15.625-25.976-15.28-35.534c0.314-8.703-0.849-12.124-5.323-15.665
	c-9.502-7.521-4.739-10.812-18.027-17.118c-10.33-4.902-13.305-8.26-9.436-10.651c1.445-0.893,2.627-5.663,2.627-10.599
	c0-10.161-6.132-14.532-11.11-7.92c-7.021,9.325-186.519-295.568-196.219-295.568c-6.955,0-30.176-31.838-31.067-42.594
	c-0.562-6.787-9.897-19.416-14.392-19.464c-0.739-0.009-187.719-293.326-187.733-297.694c-0.007-2.383-0.824-3.832-1.815-3.22
	c-0.991,0.612-15.497-20.12-32.235-46.071c-52.862-81.958-91.171-135.048-78.87-142.651c4.157-2.569-2.304-10.439-2.304-20.893
	c0-3.391-1.647-7.096-3.66-8.233c-4.645-2.623-13.784-46.706-31.236-115.561c-37.435-14.411-29.723-10.333-45.235-12.114
	C178.926,50.643,92.131,67.931,90.213,71.035c-2.3,3.721-11.012,3.314-12.377-0.578c-3.34-9.518-0.93,15.512,3.421,35.542
	c11.826,54.437,17.919,91.327,16.365,99.094c-3.239,16.199,10.29,10.983-2.114,34.026c-4.068,7.557-5.196,17.561-6.849,60.744
	c-2.181,56.987-10.986,109.877-25.294,151.945c-10.201,29.993-11.795,39.644-6.858,41.539c2.67,1.025,3.938-0.059,3.938-3.367
	c0,0,23.242-79.26,31.975-133.25c0.773-4.777,5.134,16.918-21.641,160.147c-2.646,14.154-4.24,26.658-3.542,27.787
	c0.698,1.129,3.244,2.053,5.659,2.053c6.427,0,0.195-0.56,14.133-80.131c12.996-74.189,12.471-59.28,14.53-144.752
	c1.159-48.125,2.72-72.753,4.832-76.253c2.547-4.22,2.768-2.322,1.205,10.339c-1.21,9.796-4.786,116.027,1.839,120.121
	c5.119,3.162,8.666,0.493,6.259-4.71c-2.628-5.682-5.385-82.958-2.904-81.416c12.894,8.016,342.637,1578.512,360.476,1684.915
	c1.918,11.443-2.328,17.495,55.041,21.678c53.227,3.88,65.556,2.957,100.062-7.486c14.281-4.323,22.228-0.514-9.469-135.657
	c-8.901-37.949-334.206-1592.276-334.206-1592.276c0.718,1.001,291.712,443.697,290.531,457.409
	c-1.306,15.165,6.589,4.335,38.233,64.768c27.248,52.039,133.821,198.751,196.859,290.744c-16,23.624-17.835,29.005-34.525,68.801
	c-5.974,1.638-101.787,28.401-101.185,34.556c0.575,5.883,0.477,12.693,12.995,2.846c6.688-5.26,80.276-30.316,82.501-28.09
	c0.719,0.719-1.12,6.969-4.086,13.889c-20.274,47.296-14.557,91.25-4.032,40.494c3.59-17.316,14.523-51.263,18.307-56.846
	c0.233-0.344,9.642-2.238,20.908-4.209c29.135-5.098,40.211-12.994,42.267-9.74c0.815,1.29,3.482,2.771,5.926,3.29
	c6.747,1.435,89.903,134.829,89.903,144.218c0,7.457,7.912,19.151,20.237,29.912c5.959,5.203,5.993,5.545,3.287,33.647
	c-24.275,252.136-20.304,236.782-31.307,248.133c-7.32,7.553-7.8,8.97-4.714,13.912c3.836,6.143,5.141,6.665,25.796,10.333
	c22.115,3.927,42.023,21.066,53.447,24.692c11.526,3.658,76.904,36.868,80.654,38.644c32.148,15.227,119.974,95.415,140.675,129.503
	c6.467,10.649,20.366,26.201,40.201,49.161c26.688,30.893,22.774,19.494,49.668,39.854c14.478,10.96,56.995,38.478,75.129,48.625
	c6.595,3.691,82.648,3.18,280.257,3.095c106.382-45.158,111.806-63.124,171.62-65.859c15.121-0.691,22.439-2.272,27.631-5.969
	c11.95-8.509,22.645-5.732,43.019-22.327c42.75-34.821,89.361-33.676,89.361-53.123c0-6.355,81.486-85.607,163.29-147.154
	c111.348-83.776,106.047-75.159,104.422-79.394c-0.785-2.044-0.272-2.974,1.154-2.092c1.411,0.872,14.484-7.097,29.05-17.709
	c20.717-15.092,29.14-19.692,38.679-21.119c6.707-1.003,13.261-3.152,14.565-4.774c4.003-4.982-1.333-14.582-8.105-14.582
	c-7.087,0-17.991-14.892-42.99-46.113c-0.074-9.198-0.625-77.615-0.699-86.817c27.773-25.294,32.575-29.916,36.382-29.916
	c1.386,0,3.258-2.326,4.161-5.17c2.024-6.375,7.885-6.745,10.242-0.646c0.008,0.021,11.006,85.752,29.492,128.597
	c12.359,28.645,14.35,32.271,17.73,32.291c1.911,0.012-0.349-6.436-5.655-16.135c-23.123-42.276-35.008-120.991-35.008-131.004
	c0-18.453-14.036-19.741-6.425-26.057c5.877-4.877,1.804-12.441,8.364-14.421c5.546-1.674,22.522-10.396,28.498-13.395
	c4.341,26.248,4.236,66.175-2.007,22.294c-5.231-36.767,1.15,25.652,1.46,25.963c4.415,4.415,9.436-23.788,5.894-33.109
	c-1.515-3.988-1.419-7.188,0.268-8.875c3.552-3.552,4.302-2.27,6.303,10.778c1.246,8.132,0.901,10.674-1.268,9.333
	c-4.195-2.589-1.303,5.568,1.782,4.585c3.071-0.978,1.779-28-1.645-34.397c-3.157-5.9,0.361-13.808,7.951-17.87
	c9.04-4.838,2.529,8.114,7.914,27.173c1.474,5.214,1.828,0.828,1.082-13.387c-0.61-11.628-0.28-21.515,0.734-21.971
	c5.438-2.448,28.985-30.961,28.985-35.098c0-4.714,76.026-84.077,80.346-79.71c-0.581,1.984-0.534,4.07,0.083,6.033
	c-2.343,3.864-126.958,754.648-126.958,759.215c0,4.31,21.012,9.172,39.456,9.123c16.838-0.041,39.327-5.338,39.458-9.293
	c0,0,122.862-771.071,117.178-733.655c4.308-28.356,2.277-43.434,11.638-91.314
	C2611.06,1100.545,2615.858,1086.418,2612.811,1081.487z M1720.395,1715.076c-6.542,0-7.574-12.44-0.521-3.94h0
	C1721.913,1713.593,1722.109,1715.076,1720.395,1715.076z M94.787,281.77c0.02-7.108,0.521-9.71,1.116-5.78h0
	C97.344,285.518,94.74,299.159,94.787,281.77z M700.988,896.321c-47.017-72.752-79.342-116.874-77.015-123.508
	c2.951-8.412-7.003-10.974,97.611,150.65v0C724.568,928.072,730.679,942.262,700.988,896.321z M825.338,1132.91L825.338,1132.91
	c-16.809,5.136-41.132,9.579-41.132,7.515c0-1.38,11.387-27.558,18.36-42.208c11.014-23.138,22.02-8.119,18.835,0.183
	c-0.973,2.536-0.16,4.065,2.162,4.065c4.377,0,4.281,6.648-0.216,14.917c-5.268,9.687,2.358,16.54,7.857,4.47
	c3.198-7.019,8.13-9.09,5.534-2.324C833.749,1127.314,848.954,1125.694,825.338,1132.91z M1037.212,1373.874
	c11.361,14.137,9.324,13.2-3.566,0C1020.19,1360.095,1026.118,1360.069,1037.212,1373.874z M1099.1,1458.845
	c42.689,50.679,50.17,59.186,48.022,54.614c-2.139-4.553-7.08-10.616-9.89-14.217c5.164,4.978,5.77,4.82,48.683,52.615
	c37.794,42.094,37.939,42.303,33.757,48.685c-8.103,12.367,5.194,7.319,3.496,23.934c-0.766,7.5-5.339,2.268-61.153-69.959
	c-80.247-103.845-54.227-78.057-86.179-115.169C1012.14,1365.364,995.545,1335.909,1099.1,1458.845z M1219.79,1559.338
	c20.738,19.168,10.975,14.346,4.057,7.755c-4.979-4.745-5.807-4.963-4.491-1.184c3.523,10.12-272.66-276.827-90.002-92.518
	C1242.027,1587.083,1179.693,1522.276,1219.79,1559.338z M1199.579,1528.604c12.722,6.672,8.736,13.253-0.748,2.571
	C1193.941,1525.668,1193.946,1525.65,1199.579,1528.604z M1224.012,1572.358c2.481,1.938,3.703,5.443,2.929,8.401l0,0
	c-2.043,7.81,7.267,16.07-81.71-81.518C1261.612,1613.051,1209.628,1561.119,1224.012,1572.358z M1231.656,1670.368
	L1231.656,1670.368c4.047,4.047-2.104,6.654-4.226,3.221C1224.974,1669.615,1228.338,1667.051,1231.656,1670.368z
	 M1065.472,1440.318c50.943,71.641,16.088,13.93,156.19,199.798h-6.652c-12.759,0-50.106-66.954-67.792-85.604
	c-117.961-159.135-117.168-157.488-121.266-165.127C1019.769,1377.862,1035.227,1397.784,1065.472,1440.318z M1161.463,1675.011
	c21.037,25.148,33.736,43.711,33.736,45.52C1195.199,1727.78,1170.553,1716.855,1161.463,1675.011z M1174.52,1725.42
	c-5.018-3.243-0.094-3.402,5.17,0C1184.708,1728.663,1179.784,1728.822,1174.52,1725.42z M1175.717,1687.222
	c-27.59-34.295-23.634-32.313-12.838-29.425c8.011,2.143,13.762,10.54,18.779,27.422
	C1185.686,1698.775,1185.585,1699.487,1175.717,1687.222z M1116.783,1670.841L1116.783,1670.841
	c4.127,11.048,4.929,11.83-13.529-8.108c-12.493-13.494-14.145-16.312-10.026-17.105
	C1099.026,1644.511,1112.224,1658.638,1116.783,1670.841z M1032.559,1438.089c99.257,191.956,98.336,187.045,93.496,186.167
	c-13.275-2.411-14.184-3.209-21.172-18.591C1043.567,1470.682,978.413,1333.377,1032.559,1438.089z M1110.856,1648.341
	c8.755-1.768,18.22,6.158,26.81,22.449c11.737,22.26,11.813,24.177-12.151-1.534
	C1112.364,1655.145,1107.999,1648.918,1110.856,1648.341z M1136.547,1658.968c-2.807-5.408-2.52-5.929,3.269-5.929
	c13.864,0,22.064,34.204,21.064,35.151C1159.824,1689.19,1139.672,1664.988,1136.547,1658.968z M1125.199,1570.105
	c-0.108,0.138-0.246,0.252-0.371,0.376l-37.82-67.943l30.55,40.048l0.079-0.061c3.478,7.117,14.083,24.384,26.986,43.72
	c16.354,24.506,29.375,44.916,28.936,45.355c-1.516,1.516-17.133-2.475-17.133-4.379
	C1156.427,1626.222,1141.253,1598.689,1125.199,1570.105z M1177.88,1661.743c3.007-3.007,17.094,2.203,20.591,7.616
	c4.996,7.733,14.999,38.648,13.845,39.802C1211.15,1710.327,1175.914,1663.708,1177.88,1661.743z M1190.422,1635.602
	c-17.296-2.632-43.802-62.828-71.789-100.137c-0.026,0.059-0.061,0.113-0.089,0.171c-39.792-52.162-44.996-57.278-77.127-115
	l-0.733,0.408c-1.063-2.055-1.948-3.87-2.644-5.424l101.152,136.458c-0.434,1.343,0.823,2.842,2.424,3.271l4.413,5.954l0.742-0.55
	c7.286,12.84,52.729,75.826,52.729,75.826C1199.267,1636.766,1195.182,1636.325,1190.422,1635.602z M1004.495,1354.343
	c1.432-1.432,13.138,14.397,10.487,14.281C1012.406,1368.519,1003.053,1355.784,1004.495,1354.343z M999.911,1364.183
	c49.21,66.386,5.749,10.622,42.829,69.109l78.626,141.25c0.532,6.411,7.035,14.36,30.17,53.353
	c-1.507-0.302-16.561-3.15-17.172-3.96c0,0-50.955-98.518-65.209-125.698c-38.147-72.744,23.048,24.476-47.952-93.153
	c-7.582-12.561,0.81-3.832,0.81-6.538c0-3.22-18.862-29.669-20.456-28.684c-0.935,0.578-1.7-1.191-1.7-3.93
	C999.858,1365.314,999.878,1364.729,999.911,1364.183z M1008.946,1409.9c7.652,21.542,14.675,37.935,15.607,36.426
	c1.21-1.958,70.182,145.813,79.746,170.855c0.975,2.552-3.131,2.552-12.257-0.001c-5.517-1.543-9.617-11.217-36.022-84.993
	c-36.591-102.236-33.059-84.014-29.124-72.724c3.468,9.948,2.697,16.052-3.753-3.351c-4.593-13.815-16.927-34.672,25.468,74.487
	c29.023,74.728,31.523,82.457,26.923,83.246c-12.179,2.088-9.789-6.262-50.928-133.99c-13.634-42.331-14.328-44.933-10.347-38.773
	c3.967,6.14,2.991-0.99-1.638-11.962C991.511,1379.089,979.582,1327.227,1008.946,1409.9z M1011.73,1469.76
	c-14.083-64.099-17.43-76.708,18.385,41.952c15.093,50.008,28.294,92.959,29.334,95.447c2,4.784,1.741,4.842-10.052,2.279
	C1039.841,1607.361,1042.87,1611.487,1011.73,1469.76z M1032.632,1606.126c-18.648-1.738-16.911,1.568-23.284-44.33
	c-21.991-158.395-32.077-195.043,4.557-47.463C1032.769,1590.324,1036.057,1606.446,1032.632,1606.126z M1007.701,1465.628
	c16.424,70.821-24.615-79.722-24.382-93.551C983.709,1348.919,1001.665,1439.6,1007.701,1465.628z M982.421,1360.466
	L982.421,1360.466c0.747,1.866,0.655,4.095-0.204,4.954C980.164,1367.473,980.491,1355.64,982.421,1360.466z M974.683,1374.521
	L974.683,1374.521c1.577,6.037-1.182,16.687-1.182,4.523C973.501,1374.069,974.033,1372.033,974.683,1374.521z M973.415,1416.842
	c4.031,2.492,0.647,28.79-0.385,34.578C969.266,1472.538,971.092,1415.406,973.415,1416.842z M965.258,1376.459
	c3.147-9.323-0.642,32.152-1.74,33.388C961.61,1411.996,963.135,1382.751,965.258,1376.459z M966.801,1435.645
	c-0.91,9.094-1.654,48.352-1.654,87.239h0c0,76.864,0.823,72.684-13.571,68.923c-8.325-2.175-4.177-16.149,6.922-114.479
	C967.047,1401.603,968.559,1418.077,966.801,1435.645z M983.241,1597.306c-3.95,1.951-14.189-3.216-14.001-7.065
	c0.522-10.67,1.083-120.911,3.662-106.509c4.972,27.765,1.159-88.921,8.501,52.59
	C983.125,1569.513,983.952,1596.956,983.241,1597.306z M989.851,1582.45c-5.21-54.725-13.054-189.998-10.894-187.858
	c1.322,1.309,26.15,171.308,28.413,185.426c3.365,20.996,3.335,21.32-1.955,21.025
	C992.563,1600.326,991.423,1598.965,989.851,1582.45z M1007.797,1632.362c-10.918-7.231-0.851-6.654,5.17,0
	C1018.85,1638.862,1017.613,1638.862,1007.797,1632.362z M1038.793,1645.249c-2.389-3.865-22.992-12.706-21.186-14.511
	c2.175-2.175,18.39,5.818,23.548,11.607h0C1047.983,1650.007,1040.734,1648.39,1038.793,1645.249z M1060.592,1657.409
	c-12.018-10.866-3.088-3.548,2.779-0.665c4.147,2.038-5.869-8.581-24.556-21.922c13.01,2.38,21.299,2.472,29.467,17.734
	c2.382,4.451,2.319,5.663-0.297,5.693c-2.372,0.028-2.235,0.727,0.48,2.444C1072.859,1663.472,1073.243,1668.847,1060.592,1657.409z
	 M1078.124,1663.545c-12.561-14.928-7.364-14.22,9.157,1.247c8.885,8.319,16.64,15.475,17.232,15.903v0
	C1107.426,1682.799,1093.066,1681.302,1078.124,1663.545z M1107.167,1676.03c-1.484-2.772-3.512-4.555-4.506-3.962
	c-0.995,0.593-9.951-6.343-19.903-15.414c-16.169-14.738-17.389-16.496-11.469-16.516c15.538-0.054,28.039,32.948,30.736,28.626
	c0.777-1.245,5.856,2.849,11.286,9.099l0,0C1130.37,1697.499,1113.895,1688.601,1107.167,1676.03z M1138.332,1709.907
	c-3.454,0-3.438-6.001,0-3.877C1141.477,1707.973,1141.942,1709.907,1138.332,1709.907z M1146.087,1721.538
	c-4.248-5.118-1.72-5.187,2.585,0C1152.937,1726.677,1150.367,1726.695,1146.087,1721.538z M1152.427,1704.572
	c-5.99-0.402-19.34-8.923-20.702-13.214c-2.254-7.1-5.052-2.407-7.016-9.238c-4.286-14.905-10.059-20.037,21.036,12.924h0
	C1150.776,1700.375,1153.782,1704.66,1152.427,1704.572z M1161.596,1731.878c-4.266-5.141-1.693-5.154,2.585,0
	C1168.432,1737.001,1165.895,1737.058,1161.596,1731.878z M1160.058,1722.455c-4.89-5.507-4.885-5.525,0.748-2.571
	c3.12,1.636,6.387,4.132,7.261,5.546v0C1171.053,1730.263,1164.991,1728.011,1160.058,1722.455z M1150.236,1689.228l-6.918-14.217
	c3.855,4.271,18.73,19.651,17.195,23.652c-0.703,1.833,0.181,2.681,2.047,1.965c1.807-0.693,4.631,1.692,6.275,5.301
	C1174.923,1719.291,1161.331,1712.031,1150.236,1689.228z M1180.712,1751.265c-1.891,0-14.7-14.217-6.098-14.217
	c1.474,0,3.782-1.745,5.13-3.877c3.818-6.04,1.22,3.443,5.115-2.585c3.093-4.787,5.02,0.394-4.095,6.367
	c-6.396,4.191-6.489,4.588-2.184,9.344v0C1181.053,1749.03,1182.012,1751.265,1180.712,1751.265z M1197.784,1765.826
	c0-1.62,1.204-1.467,3.059,0.388C1206.803,1772.175,1197.784,1773.302,1197.784,1765.826z M1204.874,1750.651
	c-0.54,7.166-3.453,7.398-7.69,0.614c-1.776-2.843-4.874-5.17-6.885-5.17c-5.922,0,1.289,4.083,5.951,12.278l0,0.004
	c3.832,6.736-2.592,2.787-7.956-4.89c-7.003-10.024-5.601-16.36,2.61-11.79c10.086,5.614,8.619,12.532,12.236,6.68
	C1204.673,1745.899,1205.182,1746.567,1204.874,1750.651z M1192.614,1732.764c0-3.363,10.612,4.378,13.571,3.54
	c1.066-0.302,1.939,0.546,1.939,1.883C1208.123,1747.643,1192.614,1735.961,1192.614,1732.764z M1217.243,1727.884
	c-10.946,17.711-40.09-56.84-31.667-46.351C1204.694,1705.341,1218.597,1725.692,1217.243,1727.884L1217.243,1727.884z
	 M1232.702,1717.625c-1.027,1.662-11.63,5.587-11.666,4.318c-0.025-0.925-12.552-35.3-11.596-35.3
	C1211.653,1686.643,1233.701,1716.009,1232.702,1717.625z M1235.914,1711.411c-1.196,1.196-27.791-31.917-27.791-34.602
	c0-4.273-17.943-15.184,1.609-10.774c12.325,2.78,13.072,3.717,20.533,25.769
	C1233.776,1702.183,1236.319,1711.007,1235.914,1711.411z M1240.012,1711.366c0.783-2.041,0.296-4.086-1.084-4.546
	c-3.614-1.205-3.387-19.468-5.899-21.982c-2.29-2.29-2.053-5.95,0.385-5.95c2.126,0,15.318,19.616,7.501,13.254
	c-4.498-3.661-6.154-0.685-2.046,3.677c1.776,1.886,4.083,9.857,4.083,10.857
	C1245.525,1718.887,1238.357,1715.682,1240.012,1711.366z M1239.158,1565.129c-2.087,3.377-41.738-35.328-28.449-27.115
	c18.314,11.314-83.095-78.838-84.469-78.838c-2.633,0,54.683,57.935,62.496,65.914c-106.001-103.962-48.012-52.816-98.289-101.944
	c-58.209-56.878-21.323-25.698,34.809,27.124c86.508,81.406,19.946,15.059,91.261,77.365
	C1265.146,1570.121,1245.167,1555.405,1239.158,1565.129z M1217.17,1520.71c7.235,5.817,40.065,31.64,40.065,34.452
	C1257.236,1559.072,1258.103,1559.256,1217.17,1520.71z M1394.324,1707.56c-0.283-0.67,0.024,0.038-0.821-1.893
	c0.448,0.399,0.917,0.91,1.384,1.512C1394.699,1707.306,1394.512,1707.434,1394.324,1707.56z M1703.125,1776.925l-6.462,3.649v0
	c-7.601,4.293-14.873,5.874-19.386,7.068C1690.727,1780.045,1691.638,1779.962,1703.125,1776.925z M1712.646,1779.699
	c4.095,0-0.42,5.009-8.09,8.975c-7.762,4.014-23.403,7.52-23.403,5.246C1681.153,1792.321,1709.104,1779.699,1712.646,1779.699z
	 M1660.266,1794.965c4.141-1.655,7.154-1.599,8.918,0.164v0c1.828,1.829-0.133,2.612-6.254,2.5
	C1654.551,1797.475,1654.39,1797.314,1660.266,1794.965z M1644.319,1790.004c9.928,0.06,7.961,10.258-10.986,0.993
	C1620.722,1784.83,1633.088,1789.935,1644.319,1790.004z M1627.239,1792.429L1627.239,1792.429
	c20.478,9.089,3.162,2.408-46.896-1.121c-16.435-1.158-25.373-3.268-35.469-8.374c-37.051-18.736,23.015-0.69,29.625,2.243
	c13.313,5.907,16.231,6.171,9.569,0.866c-4.663-3.713-4.195-3.881,6.614-2.378
	C1613.29,1786.808,1616.086,1787.479,1627.239,1792.429z M1626.225,1801.25c1.777-0.717,4.685-0.717,6.462,0
	C1637.007,1802.993,1621.905,1802.994,1626.225,1801.25z M1571.297,1798.941c-21.191-13.699,3.153,0.743,51.697-0.839l-10.339,2.623
	v0C1590.428,1806.365,1582.233,1806.012,1571.297,1798.941z M1595.368,1811.536c1.866-0.746,4.095-0.654,4.954,0.204
	C1602.37,1813.79,1590.542,1813.469,1595.368,1811.536z M1543.46,1811.609c1.75-0.71,5.239-0.753,7.755-0.098v0.002
	C1557.33,1813.107,1539.208,1813.33,1543.46,1811.609z M1537.552,1808.132c-31.695-29.157-25.125-21.98-3.451-19.105
	c11.926,1.582,43.658,14.514,43.658,17.792C1577.759,1808.542,1540.571,1808.132,1537.552,1808.132z M1493.598,1804.453
	c-4.977-3.651,3.801-2.041,33.755,6.19c7.197,1.978,7.29,2.147,1.292,2.356c-3.554,0.124-8.207-0.903-10.339-2.281
	C1512.24,1806.797,1501.064,1809.929,1493.598,1804.453z M1510.067,1814.122c1.866-0.747,4.096-0.655,4.954,0.204v0
	C1517.072,1816.376,1505.242,1816.054,1510.067,1814.122z M1510.552,1802.779c-30.226-8.336-24.401-0.357-39.289-19.203
	c11.282-0.979,28.368-4.52,49.628,14.174v0C1533.911,1809.198,1533.881,1809.213,1510.552,1802.779z M1493.328,1767.627
	c3.791-3.79,82.635,27.698,30.026,16.148C1511.146,1781.095,1490.802,1770.154,1493.328,1767.627z M1585.513,1777.805
	L1585.513,1777.805c2.398,0.918,1.412,1.544-2.585,1.632C1568.762,1779.76,1525.328,1754.76,1585.513,1777.805z M1550.618,1771.415
	c12.158,6.432,10.903,6.515-12.271,0.814c-19.921-4.901-23.513-10.364-28.763-15.614
	C1520.345,1759.886,1538.475,1764.991,1550.618,1771.415z M1519.599,1756.093c-5.893-0.284-19.244-5.091-20.704-7.454
	C1493.579,1740.037,1524.057,1756.308,1519.599,1756.093z M1489.899,1757.697c4.426-5.333,7.799-4.823,16.776,2.535
	c7.657,6.277,6.743,6.952-6.462,4.771C1487.871,1762.965,1486.395,1761.919,1489.899,1757.697z M1484.652,1764.072
	c3.129,2.909,19.772,18.14,18.145,17.802C1469.375,1774.922,1459.401,1782.742,1484.652,1764.072z M1438.254,1798.868
	c-5.543-7.225,10.26,7.423,10.261,8.423c-0.001,4.081-20.136-5.835-21.971-6.7
	C1441.729,1803.753,1442.607,1804.541,1438.254,1798.868z M1474.388,1837.886c-1.757-2.117-4.092-3.294-5.189-2.616
	c-1.916,1.184-11.457-1.333-26.466-6.982c-10.327-3.887-0.231-3.305-12.105-15.179c-6.603-6.603-6.992-7.604-2.388-6.143
	c8.923,2.832,25.799,10.731,25.221,11.805c-1.156,2.148,3.289,12.623,5.357,12.623c1.21,0,4.33,0.684,6.934,1.519
	c8.042,2.581-11.429-11.859-7.566-11.859c1.213,0,6.748,4.653,12.301,10.339C1484.486,1845.732,1478.152,1842.422,1474.388,1837.886
	z M1498.92,1826.226c-0.879,1.422-1.82,2.503-2.091,2.403c-12.771-4.697-9.302-4.664-3.572-4.806
	C1497.476,1823.717,1499.849,1824.724,1498.92,1826.226z M1477.736,1808.121c-1.657-4.389-1.883-7.743-0.523-7.743
	c2.382,0,46.635,26.971,24.292,19.394C1490.031,1815.879,1482.11,1819.711,1477.736,1808.121z M1510.552,1844.609
	c-12.785-2.282-4.521-4.893,0.646-4.061c6.139,0.989,5.496-4.91,1.279-3.292c-3.424,1.314-7.948-2.642-9.033-7.901
	c-0.918-4.446,14.227-2.987,10.339-1.418c-4.818,1.944-3.907,5.48,1.886,7.319c7.647,2.427,2.195,8.119,7.161,7.125
	c1.777-0.355,3.231,0.517,3.231,1.939C1526.062,1847.087,1524.588,1847.115,1510.552,1844.609z M1527.649,1842.863
	c-2.384-6.218-8.807,1.694-5.641-3.427c1.053-1.704,0.509-4.791-1.21-6.862c-6.295-7.585-0.492-3.495,7.496,5.283
	C1540.246,1850.991,1529.36,1847.322,1527.649,1842.863z M1535.706,1829.702c1.75-0.71,5.239-0.753,7.755-0.098v0.002
	C1549.576,1831.199,1531.453,1831.422,1535.706,1829.702z M1521.968,1821.272c-5.454-5.46,13.033-7.7,22.358-2.709
	c3.446,1.845,5,1.845,5,0c0-1.52,6.14-2.676,14.217-2.676c20.997,0,10.21-5.226,20.033-5.075c4.306,0.07,2.836,1.49-5.661,5.47
	c-8.474,3.969-17.152,5.466-33.173,5.722C1532.807,1822.194,1522.56,1821.864,1521.968,1821.272z M1571.255,1833.762
	c-8.623-3.367,14.258-2.198,14.258-1.376C1585.513,1834.69,1575.983,1835.608,1571.255,1833.762z M1596.61,1825.58L1596.61,1825.58
	c-8.527,3.96-6.881,3.189-35.652-0.646C1605.591,1814.459,1610.223,1819.258,1596.61,1825.58z M1608.777,1804.798
	c6.894-1.803,6.892,3.334,0,3.334C1602.535,1808.132,1601.393,1806.729,1608.777,1804.798z M1606.192,1813.303
	c5.212-3.368,26.638-3.368,24.556,0C1628.832,1816.403,1600.16,1817.201,1606.192,1813.303z M1610.667,1819.364
	c1.75-0.71,5.24-0.753,7.755-0.098v0.002C1624.537,1820.862,1606.415,1821.084,1610.667,1819.364z M1649.838,1823.88
	L1649.838,1823.88c-4.387,2.779-14.722,2.715-21.674-0.134c-4.803-1.969-4.654-2.322,2.107-4.988
	c9.07-3.578,11.126-3.579,17.799-0.008C1652.359,1821.046,1652.71,1822.061,1649.838,1823.88z M1664.504,1817.262L1664.504,1817.262
	c-5.772,4.365-8.313,4.736-10.31,1.504c-0.779-1.26,1.188-2.989,4.371-3.842C1667.895,1812.424,1669.872,1813.202,1664.504,1817.262
	z M1680.322,1807.163c-21.766-1.55-6.409,3.555-19.848,3.555c-14.254,0,0.991-7.452-10.662-3.8l0,0.004
	c-8.714,2.731-10.419,4.323-15.187,1.227c-9.003-5.847,26.867-0.667,32.104-5.014c2.876-2.387,24.237-7.059,19.3-1.11
	c-3.387,4.081,0.538,4.83,4.508,0.86c1.68-1.681,4.957-1.816,8.875-0.367C1711.508,1806.993,1692.705,1808.043,1680.322,1807.163z
	 M1701.137,1798.685c1.75-0.71,5.24-0.753,7.755-0.098v0.002C1715.008,1800.182,1696.885,1800.405,1701.137,1798.685z
	 M1711.373,1794.951c-7.877-0.246-7.957-0.351-1.786-2.327C1727.625,1786.847,1723.57,1795.332,1711.373,1794.951z
	 M1718.823,1777.891c3.334,1.866,4.997,1.76,5.705-0.364c2.613-7.84,13.058,1.963-3.226,8.766l0-0.001
	c-15.983,6.679-13.124,3.556-0.975-4.905c-10.863-5.814-12.32-5.018-0.472-11.677c14.238-8.003,12.788-0.91,2.337,2.733
	C1714.98,1774.957,1714.62,1775.539,1718.823,1777.891z M2273.087,1420.914c0-2.649,21.81-26.046,25.562-30.17l0.789,37.447h0
	c0.435,20.596,0.686,37.744,0.56,38.108c-0.404,1.161-34.666-40.081-34.666-41.728
	C2265.333,1422.252,2273.087,1423.885,2273.087,1420.914z M2229.893,1447.205c5.691-4.813,5.696-4.811,1.184,0.548
	c-9.899,11.758,5.822,8.118,5.822-0.21c0-4.312,11.44-12.775,5.816-6.467c-4.667,5.233-3.977,9.011,0.907,4.958
	c6.419-5.328,10.739-4.945,12.692,1.125c2.45,7.615,8.832,74.847,7.335,77.269c-0.664,1.074-5.288,1.952-10.275,1.952
	c-7.408,0-8.831-0.828-7.768-4.523c4.771-16.594,13.714-100.288-4.167,4.031c-4.837,0.565-17.464,2.718-17.464-0.763
	c0-3.976,25.849-72.539,25.849-76.854c0-5.428-5.77,2.234-6.614,8.783c-0.917,7.118-24.405,71.111-24.405,71.111
	c0,1-15.509,1.334-15.509-0.766c0-3.386,24.474-41.324,20.1-44.027c-4.296-2.654,2.055,4.235-1.419,4.235
	c-1.267,0-7.442,9.873-13.723,21.941c-10.104,19.414-12.238,21.942-18.528,21.972c-3.909,0.017-7.108-0.64-7.108-1.458
	c0-0.819,5.302-8.379,11.783-16.801c16.487-21.426,5.994-13.404,14.426-20.313c4.933-4.042,5.218-4.877,1.484-4.358
	c-2.541,0.353-10.898,10.021-18.573,21.483c-11.518,17.204-15.336,21.045-21.876,22.004c-4.357,0.639-7.922,0.687-7.922,0.106
	c0-1,45.865-53.514,50.482-49.681c2.168,1.799,4.2,1.2,6.688-1.971c3.168-4.038,3.106-4.191-0.541-1.347
	c-7.996,6.235-9.662-6.131-5.11-3.319c3.5,2.164,4.738-4.451,7.736-2.596c2.893,1.788,13.167-11.786,15.436-10.386
	c0.86,0.531,1.735-1.899,1.945-5.399c0.341-5.68-0.457-5.224-7.42,4.245c-10.969,14.915-11.028,8.579-6.901,3.346
	c10.896-13.816-25.789,20.84-45.477,42.961h0c-19.388,21.785-24.472,26.099-30.756,26.099c-7.001,0-5.644-1.779,19.35-25.378
	c37.356-35.27,58.039-52.87,57.354-55.019C2224.425,1452.802,2226.751,1449.862,2229.893,1447.205z M2234.959,1571.408
	c-0.355-0.596-0.141-0.793,0.477-0.438c1.75,1.008,27.781-24.302,31.781-20.302c2.345,2.345-4.211,8.735-20.984,20.453l0,0
	C2205.905,1599.295,2236.769,1574.44,2234.959,1571.408z M2247.053,1554.043L2247.053,1554.043
	c-1.781,4.734-41.173,33.852-41.173,30.435c0-5.372,12.374-18.718,24.232-26.136c26.34-16.475,11.561-11.436-3.952-0.576
	c-9.396,6.578-10.42,6.057-5.374-2.735c3.179-5.54,6.745-7.845,13.45-8.695C2246.29,1544.808,2249.746,1546.885,2247.053,1554.043z
	 M2153.038,1606.768c11.872-7.005,12.366-6.874,7.754,2.045c-3.733,7.219-34.53,31.306-41.297,32.299
	c-4.851,0.711-16.507,12.783-27.659,18.551c-7.561,3.91-17.049,11.306,14.231-4.651c-13.155,20.076-8.17,18.112-0.418,6.398
	c5.66-8.552,43.364-39.21,43.364-35.259c0,6.831-45.766,47.704-49.974,44.632c-1.714-1.251-6.563,6.274-21.481,17.873l0,0
	c-15.213,11.827-17.661,10.342-8.005-4.858c13.834-21.775,14.506-27.516,38.814-46.47c19.571-15.26,25.501-17.651,14.357-5.789
	c-3.086,3.285-4.975,6.608-4.199,7.385c2.701,2.701,25.4-31.015,34.463-51.19c8.425-18.753,38.652-24.554,47.83-34.325
	c3.28-3.491,8.901-6.348,12.492-6.348c7.827,0,5.692,2.262-10.015,10.616c-29.478,15.676-74.607,56.284-31.665,23.25
	c27.493-21.15-2.544,13.596-16.6,21.833C2139.581,1611.813,2141.35,1613.663,2153.038,1606.768z M2086.808,1690.793
	c4.815-7.791,54.287-52.218,36.167-27.71c-6.266,8.476-40.653,37.777-44.333,37.777c-1.332,0-3.91,2.035-5.729,4.523l0,0
	c-4.023,5.502-6.615,5.807-6.615,0.778c0-8.146,30.215-29.169,16.787-14.332C2077.028,1698.522,2079.193,1703.114,2086.808,1690.793
	z M2066.35,1677.534c7.108-8.565,5.89,3.94-0.521,3.94C2064.115,1681.474,2064.311,1679.99,2066.35,1677.534z M2039.227,1662.017
	c15.271-21.446,41.475-37.411,44.294-37.411c2.683,0-12.287,16.244,2.164,1.262c5.687-5.896,14.701-13.34,20.032-16.541
	c5.331-3.202,9.693-6.442,9.693-7.2c0-2.047-12.11,7.78-15.424,5.731c-2.917-1.803-1.107,1.592-24.52,18.158
	c-17.626,12.472-18.604,12.231-8.223-2.028c5.739-7.883,28.905-21.087,32.787-18.687c1.37,0.847,3.2-0.306,4.065-2.562
	c2.824-7.361,60.19-43.85,62.217-41.824c5.869,5.869-44.41,40.454-28.76,21.689c6.059-7.265-19.559,16.421-19.559,19.451
	c0,5.696-14.911,20.73-28.075,28.306c-8.017,4.614-15.186,8.406-15.931,8.426c-2.411,0.067-15.738,11.29-14.933,12.577
	c1.042,1.666-4.635,6.786-2.067,2.323C2061.921,1645.12,2047.271,1656.29,2039.227,1662.017z M1945.872,1734.463L1945.872,1734.463
	c-12.666,9.66-12.916,7.893-0.902-6.356c10.378-12.307,33.95-27.544,38.378-24.807c1.17,0.723,4.299-1.085,6.954-4.018
	c5.099-5.634,25.964-20.394,28.83-20.394c2.516,0-25.698,30.03-39.084,31.995c-4.167,0.612-21.022,14.466-21.022,17.28
	c0,2.641-5.384,7.48-2.847,3.069C1959.093,1726.169,1955.109,1727.418,1945.872,1734.463z M1908.923,1768.253
	c-3.081-1.904-8.645,7.695-18.908,13.002l0,0c-15.025,7.77-15.486-0.371-0.525-9.26c11.289-6.706,28.362-17.458,25.897-13.47
	c-3.135,5.072,0.265,3.504,7.963-3.672c9.169-8.548,44.966-34.581,25.173-13.656
	C1938.668,1751.616,1911.755,1770.004,1908.923,1768.253z M1912.852,1778.206L1912.852,1778.206
	c-4.273,0.854-9.881,3.465-12.462,5.801c-5.237,4.74-6.536,2.324-1.462-2.721c3.745-3.723,32.4-22.266,34.41-22.266
	C1934.504,1759.02,1923.939,1775.989,1912.852,1778.206z M1850.633,1807.856L1850.633,1807.856
	c-2.011,3.253-10.614,3.473-18.265,0.466c-4.723-1.856-4.389-2.509,3.877-7.563c14.941-9.135,37.44-6.202,10.986,2.966
	C1826.33,1810.969,1853.812,1802.711,1850.633,1807.856z M1817.713,1791.732c-6.708,6.071-5.371-1.693-1.99-1.693
	c4.105,0-1.809-3.161,3.6-7.651c6.13-5.087-2.422-7.06,9.503-14.105c4.504-2.66,7.366-3.506,6.361-1.88
	c-2.446,3.958,1.277,3.611,6.878-0.641c7.665-5.819,4.841-13.779-2.671-6.267c-3.231,3.234-11.42,4.075,8.339-9.534
	c7.813-5.381,13.673-10.647,13.021-11.701c-0.652-1.054,0.535-3.344,2.636-5.088c5.547-4.61-0.984-9.466,3.555-6.661
	c2.951,1.824,19.284-10.302,20.094-14.917c0.951-5.424,18.513-16.65,13.497-21.665c-4.925-4.916,4.698,0.306,10.028-3.932
	c1.777-1.414,3.231-1.743,3.231-0.732c0,2.657,33.349-29.639,36.653-29.639c4.05,0-2.706,9.671-12.725,18.216
	c-5.341,4.555-7.966,7.463-5.833,6.463c4.422-2.074-22.248,25.068-35.014,31.126c-5.614,2.664-8.692,5.708-7.887,7.803
	c1.786,4.654-5.068,8.023-2.58,3.999c2.975-4.814-0.397-3.487-11.411,4.492c-8.144,5.899-9.433,7.817-6.112,9.092
	c7.945,3.049,22.264-14.492-16.88,22.946c-18.727,17.911-33.558,23.674-27.832,25.871c5.301,2.034,10.361-8.305,26.94-18.057
	c11.498-6.762,14.135-9.525,6.462-6.767c-2.488,0.894,2.456-3.863,10.986-10.572c23.04-18.12,8.593-12.409,28.886-28.95
	c20.774-16.935,2.833-7.063,26.487-25.647c8.579-6.74,15.028-13.177,14.332-14.304c-1.452-2.35,21.526-21.932,23.464-19.995
	c1.867,1.867-21.655,17.599-20.229,21.848c1.472,4.384-24.125,20.998-23.255,24.183c0.832,3.043-25.475,20.564-23.51,23.743
	c0.759,1.227,5.443-1.336,10.409-5.697c12.328-10.824,29.062-21.15,31.667-19.541c1.179,0.728,4.334-1.116,7.012-4.099
	c4.924-5.485,33.034-25.473,35.823-25.473c0.831,0-1.134,3.578-4.367,7.951c-6.53,8.832-34.264,26.804-37.898,24.558
	c-1.276-0.789-3.863,0.425-5.749,2.697c-4.668,5.625-33.706,24.746-35.244,23.208c-1.684-1.684-22.732,15.84-30.713,20.963
	c-4.596,2.949-4.549,3.086,0.832,2.443c3.135-0.375,7.788-2.499,10.339-4.721c8.354-7.275,44.704-30.369,44.704-28.401
	c0,9.062-67.26,54.216-53.952,37.247c4.681-5.968-15.03,12.976-26.264,18.785c-4.482,2.318-7.488,4.875-6.679,5.684
	c2.521,2.52,14.571-10.245,5.718,0.132c-4.868,5.706-11.089,8.183-8,3.187c2.264-3.664-2.169-3.211-6.324,0.646
	c-2.785,2.585-3.116,2.585-1.657,0C1826.397,1787.116,1824.657,1785.448,1817.713,1791.732z M1837.058,1734.98
	c-2.827-4.575,5.308,3.677,2.758-2.968c-2.094-5.457-2.35-5.306-8.872,5.248c-6.134,9.924-16.356,20.47-23.91,24.665
	c-10.577,5.875,7.439-20.619,22.103-32.503c20.434-16.561,12.527-6.492,22.438-17.537c4.166-4.643,6.662-8.773,5.545-9.178
	c-5.187-1.882,1.662-14.794,13.052-24.605c19.066-16.423,11.467-4.386,25.862-22.596c24.609-31.134,6.375,6.746-7.978,17.554
	c-12.56,9.458-1.171-1.262-3.413-3.503c-2.001-2.001-7.497,9.331-5.938,9.331c2.621,0-20.189,17.671-17.858,23.742
	c0.889,2.318-2.784,9.327-9.026,17.224c-15.234,19.272-9.421,16.339,10.75-5.424c19.616-21.165,23.629-22.328,6.073-1.761
	c-6.349,7.438-10.915,14.541-10.147,15.784c2.094,3.387-5.692-0.488-4.925,3.704c0.656,3.587-12.775,14.872-16.033,17.814
	c24.285-26.871,10.877-21.178-12.972,10.986v0c-24.891,33.572-6.643-3.878,7.591-17.249
	C1835.739,1740.343,1837.945,1736.415,1837.058,1734.98z M1854.061,1674.244c12.07-9.689,12.901-8.987,5.086,4.293h0
	c-6.513,11.066-20.708,22.893-28.788,30.078C1834.884,1699.676,1841.548,1684.288,1854.061,1674.244z M1823.877,1711.199
	L1823.877,1711.199c-2.667,3.729-18.65,14.672-18.65,12.769c0-3.397,14.37-20.936,24.227-29.57l10.328-9.047
	C1836.974,1689.996,1826.186,1707.971,1823.877,1711.199z M1983.583,1564.944c0-2.443,18.097-4.304,18.074-2.501
	c-0.017,1.245-18.131,12.704-24.198,15.308v0c-1.236,0.53-8.625,7.51-16.421,15.509c-14.351,14.726-14.409,14.712-9.533-2.257
	c1.535-5.344,27.895-21.919,25.704-17.652C1974.966,1577.72,1983.583,1567.424,1983.583,1564.944z M2097.355,1573.568
	c-14.197,18.04,5.131,3.501,5.131-1.307c0-6.911,10.823-16.937,19.359-17.934c4.991-0.582,9.073-0.42,9.072,0.36
	c-0.004,2.05-25.846,15.314-25.846,17.323c0,2,23.264-13.021,23.264-10.356c0,1.039,2.372-0.657,5.27-3.769
	c3.252-3.49,8.367-5.657,13.355-5.657c17.621,0-2.99,3.729-41.884,30.756c-12.016,8.35-15.904,10.066-14.639,6.462
	c1.115-3.174-0.128-2.47-3.517,1.993c-5.964,7.853-27.328,21.193-30.652,19.14c-1.212-0.749-4.375,1.038-7.029,3.971
	c-5.816,6.427-26.8,20.839-31.303,21.5c-4.352,0.638-10.62,7.596-23.262,16.388h0.002c-8.829,6.14-12.356,7.324-9.878,3.315
	c3.627-5.869,32.911-25.963,35.502-24.361c4.82,2.977-3.264-6.2,1.483-3.266c3.731,2.305,5.143-4.888,20.609-15.07
	c15.532-10.225,12.185-10.511,4.45-5.443c-9.735,6.378-10.125-0.375-13.339,4.659c-3.601,5.64-26.855,23.332-28.503,21.684
	c-3.589-3.588,24.125-25.723,32.206-25.723c1.785,0,3.246-0.938,3.246-2.085c0-2.723,26.475-20.552,28.103-18.925
	c2.038,2.038-28.244,30.715-0.315,10.26c19.967-14.624,23.2-17.533,12.925-11.63c-11.097,6.376-12.738,3.739-3.231-5.192
	c3.554-3.339,6.462-7.456,6.462-9.149c0-6.142,10.74-16.7,16.989-16.7c7.26,0,8.397,4.113,1.751,6.331
	c-2.488,0.83-7.431,3.954-10.986,6.943l-6.462,5.434C2094.197,1568.427,2108.649,1559.211,2097.355,1573.568z M2168.745,1557.959
	c1.031,1.669,0.554,2.089-1.165,1.026c-1.601-0.99-5.852,0.128-9.446,2.483c-10.869,7.123,0.446-3.893-25.088,15.316
	c-10.204,7.676-19.354,13.462-20.333,12.857c-0.979-0.605-3.863,1.201-6.409,4.014c-4.032,4.456-25.753,18.027-28.851,18.027
	c-2.051,0,6.126-9.7-6.242,1.49l0,0c-11.564,10.463-35.948,27.463-35.86,25.001c0.162-4.495,15.132-18.583,27.756-26.12
	c21.34-12.74,9.433-3.625,32.847-19.993c9.338-6.528,18.408-12.088,20.156-12.358c1.748-0.269,5.568-2.553,8.489-5.074
	c9.587-8.279,27.001-17.632,27.001-14.503c0,4.278,5.842-7.028,16.802-9.24C2182.107,1548.118,2165.698,1553.03,2168.745,1557.959z
	 M2189.071,1549.156c14.252-1.664,12.616,0.107-14.764,16.872v0c-10.555,6.463-11.011,5.297-2.254-5.759
	C2177.999,1552.76,2182.311,1549.945,2189.071,1549.156z M2022.122,1652.144c0.839,0.948,0.05,0.875-1.753-0.164
	c-1.806-1.04-7.191,0.53-11.989,3.495c-7.343,4.538-8.942,4.783-10.179,1.557c-1.987-5.179,5.082-8.778,2.183-3.745
	c-1.15,1.997,1.287,0.603,5.417-3.097c5.749-5.152,52.312-40.406,24.723-10.522
	C2025.064,1645.582,2021.283,1651.196,2022.122,1652.144z M1979.535,1683.388c2.235-3.412,3.188-7.17,2.117-8.351
	c-1.071-1.181-0.649-1.407,0.938-0.501c1.587,0.905,4.969-0.656,7.514-3.469c6.412-7.085,39.007-25.934,27.154-11.654v0
	C2014.719,1662.474,1972.644,1693.905,1979.535,1683.388z M1996.721,1685.496c-11.894,12.255-28.028,20.17-37.695,25.429l4.11-6.325
	C1967.569,1697.78,2030.619,1650.571,1996.721,1685.496z M1938.962,1702.475c0.933,3.149-5.771-1.941-8.261,2.086l0,0
	c-1.571,2.543-6.571,3.95-6.571,1.85c0-3.207,31.535-24.923,33.989-23.407c5.441,3.363-3.901-6.594,2.199-2.823
	c5.997,3.706-2.947-6.004,1.84-3.045c1.451,0.897,4.83-0.819,7.508-3.813c4.641-5.19,22.661-17.698,25.496-17.698
	c6.973,0-27.814,28.239-36.327,29.488C1954.593,1685.735,1938.236,1700.025,1938.962,1702.475z M1971.951,1658.209
	c-3.762,3.121-12.72,6.79,9.876-12.193c22.803-19.157,14.285-6.495,20.717-10.176c4.06-2.325-0.659,2.983-3.237,2.983
	c-2.604,0-21.55,16.802-19.375,16.802c0.934,0,0.155,1.86-1.731,4.133l0,0c-5.701,6.869-33.391,27.368-33.391,24.719
	c0-3.369,16.369-17.488,26.124-22.532C1981.82,1656.314,1977.05,1653.977,1971.951,1658.209z M1897.219,1690.187L1897.219,1690.187
	c1.575,4.105-29.956,34.378-29.956,31.131c0-3.935,18.502-18.999,16.516-22.214c-1.656-2.679,7.512-13.922,21.015-25.774
	c10.961-9.621,8.995-2.709-2.211,7.771C1899.001,1684.452,1896.587,1688.54,1897.219,1690.187z M1920.899,1652.093
	c-6.474,8.697-25.202,25.754-25.202,22.953c0-0.986-4.497,3.837-9.994,10.718c-11.618,14.544-17.765,19.654-22.753,24.238
	c1.712-18.921,5.095-5.853,8.094-15.304c3.123-9.839,34.317-25.977,35.436-39.075c1.709-20.037,55.193-57.17,15.764-14.671
	C1896.452,1668.754,1943.445,1621.809,1920.899,1652.093z M1944.053,1643.941c-6.933,10.203-27.677,26.84-27.677,22.198
	C1916.376,1663.487,1965.495,1612.388,1944.053,1643.941z M1933.617,1660.795c1.269,0,9.183-6.949,17.588-15.442
	c28.876-29.182,17.654-6.367-8.732,12.302c-9.378,6.635-18.213,13.267-19.635,14.736c-8.113,8.386-16.801,14.777-16.801,12.358
	C1906.036,1681.621,1930.015,1660.795,1933.617,1660.795z M1970.789,1631.429c5.496-9.315,32.775-28.391,29.905-20.912
	c-2.932,7.643,1.954,6.314-16.969,19.164C1964.524,1642.719,1963.889,1643.122,1970.789,1631.429z M1979.474,1642.986
	c-6.477,7.196-26.91,21.249-26.91,18.508C1952.564,1648.657,1996.429,1624.149,1979.474,1642.986z M2023.098,1655.241
	c2.954-4.879,36.165-30.634,39.5-30.634c0.852,0-1.92,4.362-6.162,9.693C2047.629,1645.372,2017.683,1664.182,2023.098,1655.241z
	 M2074.2,1578.002c-3.003,1.608-4.667,4.207-3.697,5.777c0.97,1.57,0.615,2.145-0.788,1.277s-6.818,1.321-12.031,4.863
	c-15.133,10.283-4.743-1.024-18.844,11.357c-5.151,4.522-12.421,9.54-16.155,11.15c-9.454,4.076-23.581,16.458-21.466,18.814
	c2.383,2.654-2.912-2.868-7.319,2.442l0,0.001c-3.716,4.478-6.772,4.906-9.024,1.264c-1.539-2.491-1.198-2.848,3.393-3.554
	c1.155-0.178,8.005-5.267,15.222-11.309c19.835-16.606,14.618-6.757,26.353-20.123c12.004-13.671,4.823-3.084,12.097-9.12
	c7.865-6.529,5.327,7.699,11.417-3.681c1.921-3.59,9.109-10.131,15.972-14.536c16.894-10.84,15.125-12.11,3.432-4.884
	c-9.655,5.967-11.412,4.527-5.235-4.292c3.099-4.424,19.452-10.149,19.452-6.81C2086.978,1561.528,2078.5,1575.7,2074.2,1578.002z
	 M2047.674,1586.39c-3.82-1.083-9.809,6.281-9.809,2.821c0-1.987-10.545,7.661-12.693,9.808c-35.898,34.601-25.88,7.996-4.526-4.947
	c20.352-12.334,13.678-4.316,28.957-18.399c15.681-14.454,19.019-13.22,5.325,1.969
	C2047.499,1585.882,2051.042,1587.346,2047.674,1586.39z M2047.581,1572.805c-5.057,0.278-39.156,31.98-34.657,19.146
	c1.525-4.351,1.293-4.317-2.37,0.346c-6.626,8.435-5.141,8.806-18.514,17.473l0,0c-13.075,8.473-13.524,8.544-11.775,1.857
	c1.267-4.845,30.6-27.719,34.078-26.573c2.916,0.96,26.808-24.544,31.261-17.339c1.24,2.007,2.512,0.734,3.601-3.605
	c1.373-5.468,3.209-6.708,9.938-6.708h8.254C2063.783,1560.489,2049.97,1572.672,2047.581,1572.805z M2033.728,1568.397
	c-11.573,7.026-11.706,7.043-10.058,1.292c1.253-4.37,0.41-3.846-3.37,2.095c-4.586,7.207-28.85,26.825-33.492,27.08
	c-2.727,0.15-25.028,20.573-22.464,20.573c1.157,0,4.797-2.529,8.087-5.62c6.225-5.847,5.983-2.332,5.983-2.332v0.004
	c0-0.001,0-0.001,0-0.002c-0.007,2.621-48.065,57.779-24.029,20.173c13.698-21.431,2.331-15.319,23.86-34.386
	c8.354-7.398,11.002-8.75,9.766-4.982c-1.682,5.13-1.67,5.131,1.463,0.058c3.604-5.837,8.004-9.639,31.592-30.406l-9.521,6.775
	c-26.319,18.727,3.539-10.742-25.795,17.519c-18.774,18.087-19.059,17.264-15.071,5.825c2.404-6.896,18.777-19.831,31.501-24.887
	c2.568-1.021,4.669-2.969,4.669-4.33c0-3.497,31.806-1.447,35.967-4.018C2045.412,1557.224,2050.208,1558.394,2033.728,1568.397z
	 M1967.374,1592.027c2.436,2.436-7.658,17.268-16.17,23.76c-12.433,9.483-8.254,11.468,0.068,3.65
	c10.444-9.811,10.294-3.98-0.196,7.632v-0.003c-5.305,5.872-12.707,12.856-16.448,15.521c-6.637,4.729-6.803,4.73-6.803,0.02
	c0-6.125-0.094-0.376,7.962-9.741c4.754-5.527,5.411-7.967,3.261-12.113c-1.481-2.855-1.893-4.453-0.915-3.55
	C1940.656,1619.535,1965.783,1590.435,1967.374,1592.027z M1946.063,1600.05c-2.057,9.335-22.066,28.522-24.923,23.899
	c-1.233-1.995-2.735-0.848-4.355,3.329v0c-2.912,7.505-13.451,16.552-19.203,21.884l1.79-7.755
	c2.081-9.016,19.894-25.636,22.673-21.155c2.572,4.146,2.605-5.904,16.242-18.91l9.486-9.047L1946.063,1600.05z M1879.539,1666.499
	c-34.445,30.886-5.9-8.496,5.411-18.034l12.973-10.939C1895.804,1644.92,1895.461,1652.222,1879.539,1666.499z M1902.433,1623.96
	L1902.433,1623.96c-3.781,7.194-27.415,31.657-27.415,28.377c0-7.907,9.622-23.111,18.233-28.809
	C1905.956,1615.122,1907.052,1615.173,1902.433,1623.96z M1873.252,1647.55L1873.252,1647.55
	c-6.066,15.441-24.082,26.381-24.082,25.042c0-3.417,12.801-21.281,20.357-28.409l8.019-7.564L1873.252,1647.55z M1937.986,1731.976
	c-10.169,12.832-14.384,16.411-31.342,26.612C1851.445,1791.791,1961.503,1702.299,1937.986,1731.976z M1868.556,1779.683
	L1868.556,1779.683c-15.036,8.619-22.384,10.987-28.433,13.276c23.467-24.276,53.994-39.109,57.252-39.109
	C1901.705,1753.85,1880.565,1772.8,1868.556,1779.683z M1935.027,1725.552L1935.027,1725.552
	c-20.829,14.675-25.684,17.881-12.982,2.313C1939.25,1706.778,1985.839,1689.754,1935.027,1725.552z M1863.983,1790.832v0.002
	c2.515,0.655,1.083,1.239-3.182,1.287C1850.373,1792.25,1857.889,1789.243,1863.983,1790.832z M1869.848,1782.21
	c5.911-3.071,6.16-2.991,2.915,0.943v0c-1.951,2.365-5.344,4.3-7.539,4.3C1860.53,1787.452,1861.183,1786.713,1869.848,1782.21z
	 M1878.076,1788.491c9.654-0.379,15.21-5.98,10.969-1.356c-3.991,4.351-12.24,4.078-16.957,6.994
	C1868.367,1796.424,1869.269,1788.837,1878.076,1788.491z M2000.058,1686.643c-3.176,0,10.83-17.934,43.276-36.464l-4.334,6.615
	C2032.914,1666.082,2001.368,1686.643,2000.058,1686.643z M2112.826,1614.706c0-3.028,19.385-21.435,18.543-24.54
	c-0.318-1.172,0.635-1.381,2.118-0.465c3.374,2.086,17.551-7.514,21.211-9.777c-2.436,4.711-7.248,14.778-11.331,18.104l0,0.001
	C2136.221,1603.851,2112.826,1616.625,2112.826,1614.706z M2139.609,1607.807c-0.819,2.133-10.638,10.857-21.82,19.386
	c-24.844,18.949-25.801,19.543-16.394,5.33c3.917-5.919,13.204-14.031,22.193-19.386
	C2141.16,1602.668,2141.642,1602.508,2139.609,1607.807z M2084.396,1636.649c8.731-5.202,16.335-9.457,16.896-9.457
	c1,0-8.341,19.101-29.974,31.988c-17.187,10.239-19.155,10.974-16.422,6.139C2061.428,1653.761,2070.547,1644.899,2084.396,1636.649
	z M2176.218,1588.172c6.947-11.704,15.978-21.01,26.204-27.003c26.742-15.672,4.174,8.051,5.532,12.579
	c0.351,1.171-0.564,1.387-2.034,0.479c-1.47-0.908-7.605,1.671-13.635,5.732v0
	C2174.733,1591.783,2173.789,1592.265,2176.218,1588.172z M2207.767,1464.653c0.538,1.779-41.583,41.987-63.923,61.019
	c-8.162,6.953-23.386,12.701-23.183,8.752c0.088-1.711,86.217-67.359,84.257-69.318c-0.675-0.675-21.631,15.162-46.567,35.194h0
	c-33.507,26.916-47.185,36.421-52.412,36.421c-9.063,0-9.612,0.483,36.462-32.12c54.43-38.517,36.743-28.677,19.195-16.76
	c-8.562,5.814-16.106,10.032-16.765,9.373c-1.334-1.334,38.965-27.48,43.781-28.405c1.678-0.323,8.285-4.136,14.683-8.475
	C2237.737,1436.975,2206.668,1461.022,2207.767,1464.653z M2185.813,1465.799c-30.838,16.625-38.159,24.701-40.772,22.344
	c-1.115-1.005-1.067-0.175,0.104,1.844c3.785,6.518-7.981-1.739-5.241,2.692c1.993,3.224-8.283,8.594-12.022,6.283
	c-1.676-1.036-2.223-0.666-1.279,0.862c0.919,1.488-8.715,9.246-21.716,17.488c-30.06,19.056-31.3,24.333,8.148-1.059
	c73.813-47.51-10.149,14.831-25.24,20.628c-10.266,3.942-4.714-7.067-11.352-0.805c-1.884,1.777-6.973,3.225-11.309,3.217
	c-7.156-0.013-6.214-1.004,10.21-10.742c20.822-12.345,20.596-12.187,19.171-13.496c-0.592-0.544-12.127,5.254-25.633,12.884
	l0.001,0c-23.289,13.157-32.646,17.132-26.972,11.458c3.108-3.108,68.569-36.277,71.595-36.277c1.214,0,1.379,1.343,0.364,2.984
	c-2.599,4.206,4.662-0.022,2.862-2.935c-2.738-4.43,50.323-29.493,83.676-48.497
	C2213.637,1447.132,2217.51,1448.712,2185.813,1465.799z M2169.003,1456.269c1.754-1.767,3.839-2.561,4.635-1.765v0
	c0.796,0.796-0.639,2.241-3.188,3.212C2166.766,1459.119,2166.469,1458.822,2169.003,1456.269z M2167.754,1467.833
	c-57.454,28.404-134.716,74.865-143.972,73.51c-3.067-0.45,7.476-6.739,26.627-15.885c41.88-20.002,40.924-22.786-3.804-1.526l0,0
	c-81.796,38.88-42.497,14.159,41.665-21.999c14.217-6.108,44.75-20.477,67.853-31.931
	C2212.216,1442.188,2208.161,1447.856,2167.754,1467.833z M1960.383,1545.398c0.063-2.288,155.489-67.39,151.274-60.569
	c-2.9,4.692-34.981,18.616-38.245,16.599c-1.694-1.047-1.97-0.448-0.725,1.568c3.353,5.424-5.313-1.276-11.556,2.727
	c-3.43,2.198-3.432,2.487-0.02,2.526c4.792,0.049-72.114,36.664-77.485,35.595c-2.157-0.428,12.075-7.633,31.625-16.009
	c19.55-8.377,35.052-15.724,34.449-16.327c-0.603-0.603-19.507,6.709-42.008,16.249h0.003
	C1956.802,1549.335,1960.315,1548.026,1960.383,1545.398z M1950.625,1547.933c1.777,0.718,0.323,1.304-3.231,1.304
	C1938.708,1549.237,1946.312,1546.193,1950.625,1547.933z M1888.793,1595.302c-1.487-1.487,8.18-18.623,13.718-24.317
	c1.722-1.77,5.836-3.177,9.144-3.129c44.893,0.67,86.599-13.932,56.419,6.04c-9.782,6.473-13.937,6.23-7.281-0.426
	c3.707-3.706,1.886-10.149-5.405,4.142c-5.515,10.81-23.583,26.652-20.128,17.649c2.413-6.287-3.374-2.361-3.374,2.01
	c0,5.091-10.995,15.392-8.316,18.359c1.02,1.128,0.537,1.3-1.073,0.381c-3.567-2.037-13.285,6.476-17.082,9.463
	c1.505-5.372-0.107-9.003,27.265-35.503c13.07-12.654,20.071-20.489,15.559-17.412c-7.593,5.178-8.293,5.255-9.393,1.035
	c-0.95-3.643-1.25-3.446-1.489,0.977c-0.305,5.634-23.145,33.225-25.529,30.84c-0.718-0.718-3.356,1.272-5.862,4.423l-0.001,0
	c-5.354,6.73-15.159,11.899-20.86,15.218c8.893-21.477,11.602-23.175,29.17-40.508c-1.745,11.029-0.954,6.026-2.864,18.094
	c2.311-7.085,5.048-18.882,15.478-27.996c7.683-6.714,7.877-7.141,1.442-3.178c-6.116,3.767-7.827,3.958-9.653,1.074
	c-1.729-2.728-2.23-2.504-2.26,1.013c-0.039,4.429-17.893,26.313-19.861,24.344c-2.334-2.334,5.179-16.381,11.584-21.659
	c16.661-13.729-15.119-1.603-16.218,21.906c-0.324,6.927-10.049,15.319-14.884,20.005
	C1879.228,1614.591,1890.616,1597.125,1888.793,1595.302z M1883.547,1620.988c-2.107,5.38-18.868,26.693-18.868,23.992
	C1864.679,1637.093,1888.454,1608.457,1883.547,1620.988z M1846.094,1653.04c1.673,0-7.63,10.339-9.357,10.339
	C1835.062,1663.38,1844.368,1653.04,1846.094,1653.04z M1836.245,1668.874c0,1.726-15.509,16.534-15.509,14.859
	C1820.736,1682.007,1836.245,1667.2,1836.245,1668.874z M1810.397,1694.723c0,1.726-15.509,16.533-15.509,14.859
	C1794.887,1707.856,1810.397,1693.048,1810.397,1694.723z M1787.132,1782.13c0,5.029-5.606,2.817-13.047-5.149
	c-21.429-22.94,0.157-21.029,1.887-34.303c0.664-5.102,0.158-4.932-5.399,1.808c-7.838,9.506-16.535,6.872-1.58-4.126
	c15.117-11.118,8.36-10.819,3.338-7.273c-5.577,3.937,17.767-18.029,21.263-17.933c3.65,0.088-16.461,15.262-13.254,15.363
	c1.24,0.039,0.673,2.105-1.261,4.593c-2.651,3.411,15.206-11.755,26.147-22.206c0.711-0.679-1.034-0.405-3.877,0.609
	c-6.883,2.454,22.208-27.026,24.866-25.384c2.714,1.678,5.566-7.762,13.583-16.555c3.021-3.313,4.921-6.221,4.222-6.462
	c-1.861-0.641,16.271-23.598,17.034-28.792c0.708-4.823,9.49-16.698,12.424-16.8c1.287-0.045,0.326,2.143-2.134,4.862
	c-8.396,9.278-2.997,14.628-19.099,31.891c-3.646,3.91-5.288,7.108-3.649,7.108c4.783,0-6.096,16.318-15.529,23.292
	c-4.651,3.439-8.768,5.985-9.147,5.658c-1.479-1.273-17.36,18.659-16.664,20.914c1.231,3.984-11.666,19.07-21.499,25.147
	c-12.603,7.789-7.739,9.734-1.67,4.243c7.554-6.836,9.059-4.986,2.938,3.611c-7.077,9.939-6.071,14.772,4.332-1.22
	c6.499-9.992,26.143-27.362,30.942-27.362c4.907,0,42.992-41.307,28.377-13.442c-3.242,6.181-19.955,21.722-29.554,27.482
	c-6.58,3.949,3.958-7.967,1.147-10.781c-0.807-0.807-3.191,2.656-5.296,7.695c-3.712,8.884-25.594,27.652-33.611,28.829
	c-5.464,0.802-14.453,9.617-12.7,12.454c0.827,1.339,3.999,0.194,7.047-2.543c7.252-6.51,30.099-21.874,30.099-20.24
	c0,3.912-12.156,22.011-19.075,28.4C1777.454,1785.935,1787.133,1777.768,1787.132,1782.13L1787.132,1782.13z M1803.8,1768.316
	c13.403-10.983,14.262-10.519,5.614,3.034l0,0C1788.967,1803.389,1775.841,1791.226,1803.8,1768.316z M1807.736,1800.479
	c-6.129,3.876-9.441,2.674-3.991-1.449C1810.639,1793.813,1812.498,1797.467,1807.736,1800.479z M1810.026,1813.586
	c-8.835,5.598-20.872-0.87-8.54-3.964C1809.409,1807.634,1815.187,1810.316,1810.026,1813.586z M1814.062,1802.962
	c7.931,0,16.573-5.807,8.118,1.082C1810.146,1813.849,1807.111,1802.962,1814.062,1802.962z M1835.589,1822.699
	c-1.889,1.134-1.617-0.124,0.656-3.04h0.001c3.741-4.8,3.65-4.834-2.585-0.97c-5.445,3.375-7.479,3.476-12.924,0.64
	c-3.663-1.907-4.782-3.394-2.585-3.443c3.447-0.069,3.447-0.356,0-2.583c-5.265-3.402,1.435-4.119,4.963,1.939
	c1.462,2.51,2.674,3.085,2.713,1.292c0.094-3.88,8.872-4.24,15.601-0.639c3.307,1.769,5.384,1.715,6.55-0.171
	c4.979-8.055,40.325-28.361,24.298-11.301C1858.38,1819.214,1841.958,1818.873,1835.589,1822.699z M1878.131,1803.078
	c1.851-2.964,6.054-5.284,9.571-5.284c8.608,0,5.944,0.998-4.377,6.248C1874.942,1808.305,1874.874,1808.293,1878.131,1803.078z
	 M1902.03,1802.61c-4.219,3.835-32.619,12.565-11.631,1.712C1898.726,1800.016,1906.073,1798.934,1902.03,1802.61z
	 M1915.083,1800.378L1915.083,1800.378c-7.115,3.057-9.644,3.057-7.754,0c0.879-1.422,4.146-2.503,7.261-2.403
	C1920.05,1798.15,1920.067,1798.237,1915.083,1800.378z M1944.299,1786.844c-8.846,5.336-31.345,10.729-26.631,6.383
	C1922.875,1788.427,1970.528,1771.021,1944.299,1786.844z M1928.32,1783.885c-10.986,1.637-13.387,2.475-19.646,6.859l0,0
	c-5.734,4.016-20.732,6.337-20.732,3.206c0-1.8,20.331-11.207,40.385-12.923c11.947-1.021,21.982-12.851,27.078-11.151
	C1959.13,1771.117,1936.925,1782.603,1928.32,1783.885z M1943.528,1769.367c-8.082,2.696-11.466,4.874-9.047,5.823
	c2.126,0.833,2.703,1.515,1.281,1.515c-14.928,0-2.745-17.37,22.479-32.05c10.383-6.043,19.359-10.521,19.947-9.953
	c0.587,0.569-4.066,7.632-10.34,15.696C1958.709,1762.145,1953.874,1765.916,1943.528,1769.367z M1976.506,1755.399
	c0.337,0.141-2.294,3.32-5.849,7.063h0c-7.086,7.464-13.657,9.677-7.047,2.373c4.148-4.583,15.22-32.291,34.93-43.308
	c6.422-3.589,12.107-6.095,12.632-5.57C2012.561,1717.345,1975.506,1754.981,1976.506,1755.399z M2016.838,1706.557
	c-0.688,1.69-37.12,25.642-21.209,8.061c5.49-6.067,3.453-10.782-3.94,1.182v0c-5.386,8.715-71.489,55.197-30.724,15.667
	c13.137-12.739,38.127-29.277,38.127-25.232c0,1.094,2.617-0.353,5.816-3.214c6.548-5.857,23.521-16.378,26.422-16.378
	C2033.968,1686.643,2018.268,1703.045,2016.838,1706.557z M2014.669,1692.866c-5.261,3.901,8.146-11.14,6.316-14.103
	c-1.722-2.786,5.706-7.505,2.674-2.213c-3.487,6.087,27.344-24.157,31.438-20.064
	C2061.811,1663.201,2017.075,1691.083,2014.669,1692.866z M2043.034,1697.784c0-3.465,10.34-12.696,10.34-9.357
	C2053.374,1691.893,2043.034,1701.123,2043.034,1697.784z M2052.334,1679.908c-0.85-2.215-1.545-4.378-1.545-4.806
	c0-1.271,31.631-19.727,32.43-18.923c0.403,0.406-1.811,3.646-4.921,7.2v0c-3.11,3.554-9.876,9.634-15.036,13.509
	C2055.385,1682.805,2053.632,1683.289,2052.334,1679.908z M2062.778,1731.878c2.214-5.768,6.327-1.794,11.274-7.755
	c1.77-2.133,4.53-3.847,6.133-3.808C2084.019,1720.408,2058.268,1743.63,2062.778,1731.878z M2082.659,1713.835L2082.659,1713.835
	c-9.009,5.902-19.568,9.569-18.522,6.432c0.478-1.433,1.449-2.555,2.161-2.486c1.885,0.173,34.004-31.058,36.995-31.109
	C2106.664,1686.626,2089.302,1709.482,2082.659,1713.835z M2199.378,1624.147c-0.107,4.722-4.486,8.309-7.299,5.978
	c-3.16-2.618-9.89,1.748-17.218,11.168c-3.447,4.431-3.447,4.743,0,2.811c5.785-3.243,15.515-13.462,15.501-10.255
	c-0.01,3.127-15.004,12.934-18.388,12.026c-3.61-0.968-18.146,9.67-16.61,12.156c1.211,1.96-4.947,8.264-15.399,15.765
	c-5.141,3.69-5.141,3.678-0.133-2.185c6.061-7.096,9.417-18.511-1.048-5.744c-9.972,12.164-23.163,21.898-18.205,19.352
	c5.405-2.775,0.122,2.715-2.305,2.715c-2.624,0-17.157,12.46-17.588,15.078l-0.001,0c-0.195,1.185-0.945,2.745-1.668,3.468
	c-3.625,3.626,0.487-7.362,4.355-11.637c6.499-7.18,1.605-12.351,6.144-11.459c1.735,0.341,4.323-1.565,5.753-4.236
	c2.875-5.372,28.402-24.559,30.235-22.726c1.193,1.193,17.54-13.962,17.659-16.371c0.036-0.745,5.294-7.555,11.684-15.133
	c10.559-12.523,31.032-26.741,31.032-21.552c0,3.021-14.642,16.336-29.076,26.44c-16.594,11.617-13.103,13.439,0.249,2.865
	c15-11.88,13.47-5.897,18.78-12.295c9.682-11.666,40.752-24.906,14.812-6.114
	C2204.469,1618.736,2199.397,1623.184,2199.378,1624.147z M2243.309,1593.747c0.029,0.797-4.018,4.897-8.994,9.11h0
	c-32.92,27.874-4.378,1.071-10.042,1.071c-4.368,0-1.226-4.504,5.662-8.117c5.632-2.954,5.637-2.936,0.748,2.571
	c-12.841,14.463,14.035-4.794,10.126-4.794c-7.565,0,32.279-28.381,32.279-24.703
	C2273.087,1571.001,2243.231,1591.636,2243.309,1593.747z M2294.104,1555.035c32.99-26.267-19.618,6.11-16.636,10.934
	c0.981,1.587-0.021,2.013-2.499,1.062c-2.297-0.881-6.977,0.647-10.525,3.438c-19.249,15.141,2.495-9.414-16.179,7.905
	c-13.277,12.313-42.651,31.843-40.855,27.164c2.261-5.891-3.414-7.356-10.502-2.712c-10.696,7.011-2.088-3.337-16.228,9.078
	c-13.573,11.917-4.381,5.066-19.661,23.713v0.001c-9.079,11.079-35.268,32.469-35.268,28.805c0-4.655,12.504-17.738,25.999-27.204
	c8.484-5.951,14.882-11.363,14.219-12.027c-2.293-2.293-37.325,30.419-13.565,0.976c17.33-21.476,6.322-21.733,33.45-39.283
	c9.917-6.415,18.636-11.057,19.379-10.314c3.05,3.05-7.656,14.186-23.664,24.616c-20.873,13.599-24.746,18.381-0.793,3.478
	c5.385-3.35,10.788-5.475,12.008-4.72c1.22,0.754,2.849-0.275,3.621-2.287c2.432-6.337,58.808-43.101,22.274-11.145
	c-18.567,16.242-8.539,15.168-4.876,10.755c6.449-7.771,63.132-42.119,70.554-48.495c10.079-8.657-15.908,9.957-13.276,3.099
	c1.928-5.024-5.148-5.345-12.138-0.551c-6.947,4.763-8.869,4.394-7.35-1.414c1.226-4.691,16.326-9.509,16.326-5.21
	c0,2.124,5.063,1.771,9.047-0.63c3.644-2.196,18.464-1.065,32.957-3.137c5.331-0.761,9.693-0.947,9.693-0.41
	C2319.614,1542.757,2251.445,1589,2294.104,1555.035z M2305.552,1488.048c7.033,19.934,19.231,35.231,19.231,24.117
	c0-2.132-1.18-3.877-2.623-3.877c-2.687,0-12.857-15.026-12.877-19.02c-0.01-2.307,22.989,22.255,26.61,28.419
	c3.731,6.35-27.476,0.989-38.742,4.563c-4.506,1.43-6.349-2.549-17.745-38.311c-30.496-95.699-0.839,12.284,8.278,36.043l-0.001,0
	c1.676,4.368-3.67,3.815-19.019,3.815c-8.021-88.96-8.597-93.077-6.406-92.974c2.794,0.127,11.038,12.398,12.126,18.05
	c1.376,7.146,35.152,70.352,36.744,68.761c1.839-1.839-35.731-68.797-32.908-68.797
	C2281.916,1448.835,2301.766,1477.316,2305.552,1488.048z M2319.614,1354.353c0,5.99-22.807,23.821-10.647,7.244
	c11.95-16.292,18.062-22.491,20.109-20.396C2332.226,1344.424,2319.614,1349.67,2319.614,1354.353z M2345.463,1335.102
	c0-3.415,5.17-3.415,5.17,0C2350.633,1338.516,2345.463,1338.517,2345.463,1335.102z M2368.726,1314.728
	c0-3.446,5.17-6.566,5.17-3.195C2373.896,1314.991,2368.726,1318.093,2368.726,1314.728z M2400.05,1311.838
	c-3.446,0-6.567-5.17-3.195-5.17C2400.328,1306.668,2403.408,1311.838,2400.05,1311.838z M2419.562,1271.342
	c-1.906-1.906,17.957-23.4,20.679-20.679C2442.963,1253.384,2421.466,1273.245,2419.562,1271.342z"/>
</svg>
